PathFileType	4	(X/Y/Z)	/Users/itak/Documents/Research/Walk-IL/dataset/trc/00375_00011.trc
DataRate	CameraRate	NumFrames	NumMarkers	Units	OrigDataRate	OrigDataStartFrame	OrigNumFrames
100.000000	100.000000	4	56	mm	100.000000	62	502
Frame#	Time	RPSI			LPSI			L3			STRN			T10			C7			CLAV			RBAK			LBAK			LSHO			LUPA			LAEL			LAOL			LWPS			LFRA			LHPS			LHTS			RSHO			RUPA			RAEL			RAOL			RWTS			RWPS			RFRA			RIFD			RHTS			RHPS			RBHD			LFHD			RFHD			LBHD			LHIP			RHIP			RASI			LASI			LKNE			LTHI			LANK			LTIP			LTOE			LMT1			LMT5			LHEE			RKNE			RTHI			RANK			RTIP			RTOE			RMT1			RMT5			RHEE			LIFD			LWTS			*53			*54			*55			
		X1	Y1	Z1	X2	Y2	Z2	X3	Y3	Z3	X4	Y4	Z4	X5	Y5	Z5	X6	Y6	Z6	X7	Y7	Z7	X8	Y8	Z8	X9	Y9	Z9	X10	Y10	Z10	X11	Y11	Z11	X12	Y12	Z12	X13	Y13	Z13	X14	Y14	Z14	X15	Y15	Z15	X16	Y16	Z16	X17	Y17	Z17	X18	Y18	Z18	X19	Y19	Z19	X20	Y20	Z20	X21	Y21	Z21	X22	Y22	Z22	X23	Y23	Z23	X24	Y24	Z24	X25	Y25	Z25	X26	Y26	Z26	X27	Y27	Z27	X28	Y28	Z28	X29	Y29	Z29	X30	Y30	Z30	X31	Y31	Z31	X32	Y32	Z32	X33	Y33	Z33	X34	Y34	Z34	X35	Y35	Z35	X36	Y36	Z36	X37	Y37	Z37	X38	Y38	Z38	X39	Y39	Z39	X40	Y40	Z40	X41	Y41	Z41	X42	Y42	Z42	X43	Y43	Z43	X44	Y44	Z44	X45	Y45	Z45	X46	Y46	Z46	X47	Y47	Z47	X48	Y48	Z48	X49	Y49	Z49	X50	Y50	Z50	X51	Y51	Z51	X52	Y52	Z52	X53	Y53	Z53	X54	Y54	Z54	X55	Y55	Z55	X56	Y56	Z56	

63	0.62	-1410.465209960938	983.50341796875	-18.3714599609375	-1403.013305664062	982.1311645507812	-146.8756103515625	-1407.324584960938	1039.001953125	-80.80792236328125	-1180.071166992188	1219.11669921875	-83.86344146728516	-1420.960571289062	1159.997680664062	-96.28488922119141	-1373.610473632812	1407.753784179688	-110.9720687866211	-1219.334594726562	1346.147338867188	-92.05588531494141	-1435.48779296875	1271.096557617188	-44.85897445678711	-1376.994262695312	1370.601928710938	-212.5380401611328	-1286.411376953125	1387.373413085938	-262.002197265625	-1305.678100585938	1268.360717773438	-331.5753479003906	-1293.756103515625	1064.9345703125	-343.4055480957031	-1362.85009765625	1052.596313476562	-295.6424560546875	-1229.5673828125	811.09765625	-342.9361267089844	-1277.67529296875	960.1935424804688	-348.9603881835938	-1236.121337890625	738.5877685546875	-328.4172668457031	-1191.245483398438	744.3228149414062	-283.3509826660156	-1331.820068359375	1390.21923828125	55.64752578735352	-1352.558227539062	1326.96875	119.8235168457031	-1362.016967773438	1061.730224609375	164.8097686767578	-1402.312255859375	1052.26904296875	79.62101745605469	-1255.919067382812	833.5723876953125	123.2297744750977	-1292.290649414062	819.4402465820312	190.3066101074219	-1339.265502929688	994.9439697265625	174.7386779785156	-1250.549072265625	660.13037109375	133.1348266601562	-1230.518432617188	730.0374145507812	139.9839935302734	-1280.363159179688	734.5723876953125	186.7391815185547	-1357.94873046875	1603.82763671875	-47.40606307983398	-1165.245971679688	1627.53076171875	-126.9604873657227	-1198.331909179688	1633.882568359375	-32.1964111328125	-1337.085571289062	1585.735107421875	-189.3966674804688	-1313.415649414062	921.5360717773438	-245.7471008300781	-1338.658569335938	926.8174438476562	97.12698364257812	-1229.77978515625	951.9727172851562	57.52489852905273	-1194.520141601562	942.4364624023438	-180.2471923828125	-1311.18359375	467.7747802734375	-247.5315093994141	-1289.685668945312	602.3645629882812	-252.0812530517578	-1405.134521484375	50.32619857788086	-261.5506896972656	-1359.799438476562	255.1370544433594	-269.0836181640625	-1200.148559570312	43.91596984863281	-194.5983276367188	-1269.78515625	34.65748977661133	-157.39453125	-1278.70458984375	45.0281982421875	-270.1866455078125	-1440.938354492188	45.44538497924805	-195.13037109375	-1339.428100585938	464.78662109375	103.8543319702148	-1300.64306640625	735.8156127929688	135.0146484375	-1408.640014648438	55.9060173034668	111.7259826660156	-1340.100708007812	347.94091796875	103.867919921875	-1217.4228515625	46.44976425170898	57.60450744628906	-1275.18017578125	38.66814041137695	17.3927116394043	-1306.152221679688	42.92424011230469	130.1348724365234	-1460.391967773438	53.92117309570312	65.49650573730469	-1223.637329101562	678.9218139648438	-238.9272003173828	-1204.711181640625	824.346435546875	-280.5484924316406	nan	nan	nan	nan	nan	nan	nan	nan	nan	
64	0.63	-1410.430908203125	983.5039672851562	-18.33407592773438	-1403.002319335938	982.1482543945312	-146.818359375	-1407.279663085938	1038.976196289062	-80.73097991943359	-1179.973999023438	1219.11572265625	-83.81224060058594	-1420.930297851562	1159.995849609375	-96.12741088867188	-1373.59765625	1407.7587890625	-110.8043975830078	-1219.274780273438	1346.13037109375	-92.00576782226562	-1435.501342773438	1271.139526367188	-44.71106338500977	-1377.026123046875	1370.620971679688	-212.3207550048828	-1286.519409179688	1387.387817382812	-261.8921203613281	-1305.78564453125	1268.385864257812	-331.427001953125	-1293.870727539062	1064.950317382812	-343.2442932128906	-1362.944091796875	1052.60986328125	-295.4034423828125	-1229.795776367188	811.1132202148438	-342.9517211914062	-1277.923706054688	960.2077026367188	-348.8604431152344	-1236.438232421875	738.6004638671875	-328.5033264160156	-1191.452758789062	744.195068359375	-283.4219665527344	-1331.612670898438	1390.172973632812	55.83280563354492	-1352.3837890625	1326.96044921875	119.9624176025391	-1361.747924804688	1061.625732421875	164.8860321044922	-1402.21435546875	1052.249755859375	79.69524383544922	-1255.750366210938	833.6010131835938	123.055305480957	-1292.00341796875	819.3433227539062	190.2090911865234	-1339.021728515625	994.83935546875	174.7041015625	-1250.26220703125	660.107177734375	132.881103515625	-1230.377685546875	729.86767578125	139.6822204589844	-1280.095825195312	734.5075073242188	186.7141265869141	-1357.813598632812	1603.802124023438	-47.13375854492188	-1165.22802734375	1627.508666992188	-126.8536224365234	-1198.295043945312	1633.868408203125	-32.05091857910156	-1337.118286132812	1585.77294921875	-189.2292938232422	-1313.449340820312	921.553466796875	-245.7314758300781	-1338.53125	926.740966796875	97.18033599853516	-1229.696166992188	951.9210815429688	57.51677703857422	-1194.524169921875	942.4308471679688	-180.2574462890625	-1311.1884765625	467.7711181640625	-247.5178527832031	-1289.71337890625	602.3661499023438	-252.0630035400391	-1405.140625	50.33520889282227	-261.5444946289062	-1359.805786132812	255.1392211914062	-269.0680541992188	-1200.148071289062	43.91668701171875	-194.5994567871094	-1269.77783203125	34.65353393554688	-157.3894653320312	-1278.699829101562	45.02933883666992	-270.1822509765625	-1440.944946289062	45.4472770690918	-195.1246032714844	-1339.405517578125	464.7702026367188	103.8374404907227	-1300.468994140625	735.8220825195312	134.9289093017578	-1408.636352539062	55.90656661987305	111.7245712280273	-1340.076293945312	347.9266967773438	103.8646240234375	-1217.427734375	46.45096588134766	57.59959411621094	-1275.185546875	38.66592025756836	17.38528442382812	-1306.148193359375	42.93043899536133	130.1276397705078	-1460.394287109375	53.91893768310547	65.49242401123047	-1223.693603515625	678.9097900390625	-239.0197448730469	-1204.7626953125	824.3467407226562	-280.5262145996094	nan	nan	nan	nan	nan	nan	nan	nan	nan	
65	0.64	-1410.391845703125	983.50634765625	-18.28911399841309	-1402.987426757812	982.1624145507812	-146.7590942382812	-1407.244506835938	1038.951904296875	-80.66049194335938	-1179.858032226562	1219.10888671875	-83.75259399414062	-1420.904296875	1159.99169921875	-95.97111511230469	-1373.59814453125	1407.758666992188	-110.6434097290039	-1219.213745117188	1346.109497070312	-91.95675659179688	-1435.50146484375	1271.166870117188	-44.5528564453125	-1377.059814453125	1370.639282226562	-212.1065216064453	-1286.620971679688	1387.402709960938	-261.7796325683594	-1305.885498046875	1268.41455078125	-331.2811584472656	-1293.974243164062	1064.972290039062	-343.1070861816406	-1363.017700195312	1052.61669921875	-295.1900024414062	-1229.99365234375	811.1365966796875	-343.0194091796875	-1278.146728515625	960.22705078125	-348.7904663085938	-1236.731567382812	738.629150390625	-328.6684875488281	-1191.6572265625	744.0689086914062	-283.5130310058594	-1331.41162109375	1390.129272460938	56.01694869995117	-1352.213623046875	1326.950439453125	120.0975494384766	-1361.46337890625	1061.513793945312	164.9697418212891	-1402.114990234375	1052.232788085938	79.77201080322266	-1255.543701171875	833.6212768554688	122.8711166381836	-1291.718994140625	819.2506103515625	190.1001586914062	-1338.76904296875	994.7374877929688	174.6820831298828	-1249.965454101562	660.092041015625	132.6255493164062	-1230.21044921875	729.7274780273438	139.382080078125	-1279.87939453125	734.4420166015625	186.7039794921875	-1357.687255859375	1603.774169921875	-46.86626815795898	-1165.221069335938	1627.487060546875	-126.7450256347656	-1198.262939453125	1633.855834960938	-31.88619232177734	-1337.146606445312	1585.794799804688	-189.0537109375	-1313.48193359375	921.5695190429688	-245.7146453857422	-1338.400634765625	926.6668090820312	97.23246002197266	-1229.60888671875	951.8718872070312	57.50743865966797	-1194.526977539062	942.4232177734375	-180.2683258056641	-1311.195068359375	467.7669067382812	-247.5039672851562	-1289.738525390625	602.3670043945312	-252.0492248535156	-1405.149047851562	50.34370803833008	-261.5369262695312	-1359.815063476562	255.1420135498047	-269.0544128417969	-1200.14599609375	43.91594314575195	-194.5999145507812	-1269.77490234375	34.64598083496094	-157.3821716308594	-1278.694213867188	45.03010177612305	-270.1792907714844	-1440.951293945312	45.44976043701172	-195.1195220947266	-1339.383056640625	464.7552795410156	103.8199462890625	-1300.29248046875	735.8345947265625	134.8396759033203	-1408.633544921875	55.91050720214844	111.7255401611328	-1340.04833984375	347.9095153808594	103.8593368530273	-1217.432983398438	46.45246505737305	57.59527206420898	-1275.191528320312	38.66205596923828	17.37776184082031	-1306.142578125	42.93901824951172	130.1186065673828	-1460.396118164062	53.91519546508789	65.48715209960938	-1223.759033203125	678.871826171875	-239.1605834960938	-1204.79638671875	824.3452758789062	-280.5363159179688	nan	nan	nan	nan	nan	nan	nan	nan	nan	
66	0.65	-1410.34765625	983.508544921875	-18.23630905151367	-1402.96875	982.1734008789062	-146.6972198486328	-1407.219482421875	1038.928344726562	-80.59557342529297	-1179.724609375	1219.097045898438	-83.68522644042969	-1420.883178710938	1159.9853515625	-95.81356811523438	-1373.611572265625	1407.753784179688	-110.4879760742188	-1219.153564453125	1346.085693359375	-91.90811157226562	-1435.487670898438	1271.1787109375	-44.37842178344727	-1377.094116210938	1370.656005859375	-211.8965606689453	-1286.714477539062	1387.419555664062	-261.6644592285156	-1305.982543945312	1268.447143554688	-331.1406860351562	-1294.063598632812	1065.000366210938	-342.9976501464844	-1363.069946289062	1052.617919921875	-295.0078125	-1230.156860351562	811.164306640625	-343.1330871582031	-1278.328369140625	960.2513427734375	-348.750732421875	-1236.991455078125	738.666259765625	-328.8910827636719	-1191.828857421875	743.9635620117188	-283.6239624023438	-1331.222778320312	1390.090209960938	56.19791793823242	-1352.044067382812	1326.936157226562	120.2330017089844	-1361.165771484375	1061.398559570312	165.0567321777344	-1402.011108398438	1052.217529296875	79.85225677490234	-1255.306640625	833.6243896484375	122.6882858276367	-1291.436767578125	819.1644897460938	189.9826202392578	-1338.509033203125	994.6442260742188	174.6770629882812	-1249.654907226562	660.073486328125	132.3798980712891	-1230.001831054688	729.6325073242188	139.0997009277344	-1279.710693359375	734.373046875	186.7001037597656	-1357.573974609375	1603.744750976562	-46.6070442199707	-1165.223754882812	1627.468505859375	-126.6366577148438	-1198.234008789062	1633.845336914062	-31.70376396179199	-1337.166259765625	1585.797485351562	-188.8684692382812	-1313.517211914062	921.5848388671875	-245.6976470947266	-1338.266723632812	926.5962524414062	97.28340911865234	-1229.518432617188	951.826171875	57.49696731567383	-1194.527954101562	942.4155883789062	-180.2781982421875	-1311.203857421875	467.7622680664062	-247.4922943115234	-1289.759643554688	602.3682861328125	-252.0407104492188	-1405.15869140625	50.35165023803711	-261.5287780761719	-1359.82666015625	255.1455230712891	-269.0431518554688	-1200.141723632812	43.91384506225586	-194.5993194580078	-1269.777221679688	34.63668060302734	-157.3747406005859	-1278.688720703125	45.03036499023438	-270.1782531738281	-1440.95654296875	45.4525260925293	-195.1154174804688	-1339.35791015625	464.7432861328125	103.801887512207	-1300.112060546875	735.8475952148438	134.7462005615234	-1408.632080078125	55.91641616821289	111.72802734375	-1340.016479492188	347.8919067382812	103.8519744873047	-1217.437377929688	46.45380783081055	57.59171676635742	-1275.19775390625	38.65640258789062	17.36963081359863	-1306.13525390625	42.94939804077148	130.1077728271484	-1460.397094726562	53.910400390625	65.48113250732422	-1223.834594726562	678.8348388671875	-239.3240051269531	-1204.813110351562	824.343017578125	-280.5785522460938	nan	nan	nan	nan	nan	nan	nan	nan	nan	
